<svg width="90" height="117" viewBox="0 0 90 117" fill="none" xmlns="http://www.w3.org/2000/svg">
<path d="M45 0C51.3573 0 57.5717 1.71548 62.8576 4.92951C68.1435 8.14354 72.2633 12.7118 74.6961 18.0565C77.1289 23.4012 77.7655 29.2824 76.5252 34.9564C75.285 40.6303 72.2237 45.8422 67.7284 49.9329C63.2332 54.0236 57.5059 56.8094 51.2708 57.938C45.0357 59.0666 38.5728 58.4873 32.6995 56.2735C26.8261 54.0596 21.8061 50.3106 18.2742 45.5004C14.7423 40.6903 12.8571 35.0351 12.8571 29.25L12.8893 27.9805C13.2488 20.4501 16.7889 13.3367 22.7714 8.12366C28.754 2.91062 36.717 0.000435489 45 0ZM57.8571 70.2C66.382 70.2 74.5576 73.2817 80.5856 78.7671C86.6135 84.2526 90 91.6924 90 99.45V105.3C90 108.403 88.6454 111.379 86.2342 113.573C83.823 115.767 80.5528 117 77.1429 117H12.8571C9.44722 117 6.17695 115.767 3.76577 113.573C1.35459 111.379 0 108.403 0 105.3V99.45C0 91.6924 3.38647 84.2526 9.41442 78.7671C15.4424 73.2817 23.618 70.2 32.1429 70.2H57.8571Z" fill="#DE4067"/>
</svg>
